<svg xmlns="http://www.w3.org/2000/svg" data-name="Layer 1" viewBox="0 0 100 125" x="0px" y="0px"><defs><style>.cls-1{fill-rule:evenodd;}</style></defs><title>a</title><path class="cls-1" d="M78.422,16.438a1.985,1.985,0,1,1,1.911,3.48l-2.439,1.337A4.3,4.3,0,0,0,75.6,24.57l-.386,2.745a2.182,2.182,0,0,1-.038.271L70.7,59.447a8.449,8.449,0,0,1-8.387,7.3H30.239a1.989,1.989,0,0,1,0-3.978h32.07A4.454,4.454,0,0,0,66.765,58.9l.433-3.077H31.419a8.4,8.4,0,0,1-8.084-5.943l-4.294-13.7a8.437,8.437,0,0,1,8.084-11H71.507l.163-1.157a8.3,8.3,0,0,1,4.313-6.251l2.439-1.337ZM30.353,73.131a6.254,6.254,0,1,1-1.832,4.423,6.239,6.239,0,0,1,1.832-4.423Zm28.153,0a6.254,6.254,0,1,1-1.832,4.423A6.236,6.236,0,0,1,58.506,73.131Z"/><text x="0" y="115" fill="#000000" font-size="5px" font-weight="bold" font-family="'Helvetica Neue', Helvetica, Arial-Unicode, Arial, Sans-serif">Created by parnowowo</text><text x="0" y="120" fill="#000000" font-size="5px" font-weight="bold" font-family="'Helvetica Neue', Helvetica, Arial-Unicode, Arial, Sans-serif">from the Noun Project</text></svg>