<svg xmlns="http://www.w3.org/2000/svg" data-name="Layer 1" viewBox="0 0 100 125" x="0px" y="0px"><defs><style>.cls-1{fill-rule:evenodd;}</style></defs><title>a</title><path class="cls-1" d="M81.293,13.047a2.186,2.186,0,0,1,2.1,3.832l-2.685,1.472A4.741,4.741,0,0,0,78.187,22l-.425,3.024a2.082,2.082,0,0,1-.042.3L72.787,60.4a9.305,9.305,0,0,1-9.234,8.036H28.242a2.19,2.19,0,0,1,0-4.38H63.553A4.9,4.9,0,0,0,68.459,59.8l.477-3.388h-39.4a9.249,9.249,0,0,1-8.9-6.544L15.913,34.792a9.288,9.288,0,0,1,8.9-12.116H73.68l.179-1.274a9.14,9.14,0,0,1,4.749-6.883l2.685-1.472ZM33.237,77.831a2.506,2.506,0,1,0,1.773.734,2.5,2.5,0,0,0-1.773-.734Zm-4.869-2.363a6.887,6.887,0,1,1-2.017,4.87,6.865,6.865,0,0,1,2.017-4.87Zm35.866,2.363a2.506,2.506,0,1,0,1.773.734,2.5,2.5,0,0,0-1.773-.734Zm-4.869-2.363a6.887,6.887,0,1,1-2.017,4.87,6.865,6.865,0,0,1,2.017-4.87ZM69.551,52.035l3.513-24.98H24.813a4.9,4.9,0,0,0-4.725,6.437l4.727,15.079a4.848,4.848,0,0,0,4.726,3.464Z"/></svg>